<svg xmlns="http://www.w3.org/2000/svg" width="55" height="55" viewBox="0 0 55 55" fill="none">
  <g filter="url(#filter0_i_13_67)">
    <path fill-rule="evenodd" clip-rule="evenodd" d="M20.7608 3.20332C21.8101 2.91288 22.9188 3.40072 23.4136 4.3705C24.1745 5.86193 25.7209 6.87515 27.5 6.87515C29.2791 6.87515 30.8256 5.86193 31.5865 4.3705C32.0812 3.40072 33.19 2.91288 34.2392 3.20332C38.19 4.29696 41.7483 6.32662 44.6615 9.03541C45.4029 9.72479 45.6041 10.819 45.1565 11.727C44.8569 12.3346 44.6875 13.0193 44.6875 13.7501C44.6875 16.2814 46.7396 18.3334 49.2709 18.3334L49.3346 18.333C50.3477 18.3185 51.2501 18.9711 51.5537 19.9377C52.3044 22.3279 52.7084 24.869 52.7084 27.5001C52.7084 29.2367 52.5324 30.9345 52.1967 32.576C51.9615 33.7259 50.8955 34.5123 49.7274 34.3975C49.5773 34.3827 49.4251 34.3751 49.2709 34.3751C46.7396 34.3751 44.6875 36.4272 44.6875 38.9584C44.6875 40.0858 45.0916 41.1128 45.7654 41.9115C46.5223 42.8086 46.479 44.1326 45.6651 44.9783C42.6905 48.0693 38.9313 50.4049 34.7038 51.6635C33.5079 52.0195 32.2469 51.3534 31.867 50.1649C31.2755 48.3146 29.5407 46.9793 27.5 46.9793C25.4594 46.9793 23.7246 48.3146 23.1331 50.1649C22.7531 51.3534 21.4922 52.0195 20.2963 51.6635C16.0688 50.4049 12.3095 48.0693 9.33489 44.9784C8.52096 44.1326 8.47767 42.8086 9.23462 41.9114C9.90847 41.1128 10.3125 40.0858 10.3125 38.9584C10.3125 36.4271 8.26049 34.3751 5.72919 34.3751C5.57503 34.3751 5.42276 34.3827 5.27265 34.3975C4.10456 34.5123 3.03856 33.7259 2.80337 32.576C2.46761 30.9345 2.29169 29.2367 2.29169 27.5001C2.29169 24.869 2.69556 22.3279 3.44635 19.9377C3.74998 18.971 4.65232 18.3185 5.66541 18.333L5.72919 18.3334C8.26049 18.3334 10.3125 16.2814 10.3125 13.7501C10.3125 13.0193 10.1432 12.3346 9.84359 11.727C9.39593 10.819 9.59713 9.72479 10.3385 9.03541C13.2517 6.32662 16.8101 4.29696 20.7608 3.20332ZM14.5941 11.411C14.7911 12.1589 14.8959 12.9433 14.8959 13.7501C14.8959 18.2345 11.6757 21.9668 7.42159 22.7609C7.06436 24.2808 6.87502 25.8671 6.87502 27.5001C6.87502 28.306 6.92112 29.1002 7.0107 29.8806C11.4666 30.504 14.8959 34.3308 14.8959 38.9584C14.8959 40.4234 14.5509 41.8104 13.9386 43.0401C15.6574 44.5415 17.6262 45.7615 19.7733 46.6296C21.401 44.0849 24.2513 42.3959 27.5 42.3959C30.7487 42.3959 33.5991 44.0849 35.2268 46.6296C37.3738 45.7615 39.3427 44.5415 41.0614 43.0401C40.4491 41.8104 40.1042 40.4234 40.1042 38.9584C40.1042 34.3308 43.5334 30.504 47.9893 29.8806C48.0789 29.1002 48.125 28.306 48.125 27.5001C48.125 25.8671 47.9357 24.2808 47.5784 22.7609C43.3243 21.9668 40.1042 18.2345 40.1042 13.7501C40.1042 12.9433 40.209 12.1589 40.4059 11.411C38.6695 10.016 36.7037 8.8973 34.5752 8.12001C32.8957 10.1565 30.3511 11.4585 27.5 11.4585C24.6489 11.4585 22.1044 10.1565 20.4249 8.12001C18.2964 8.8973 16.3306 10.016 14.5941 11.411Z" fill="white"/>
    <path fill-rule="evenodd" clip-rule="evenodd" d="M17.1875 27.5C17.1875 21.8046 21.8046 17.1875 27.5 17.1875C33.1954 17.1875 37.8125 21.8046 37.8125 27.5C37.8125 33.1954 33.1954 37.8125 27.5 37.8125C21.8046 37.8125 17.1875 33.1954 17.1875 27.5ZM27.5 21.7708C24.3359 21.7708 21.7708 24.3359 21.7708 27.5C21.7708 30.6641 24.3359 33.2292 27.5 33.2292C30.6641 33.2292 33.2292 30.6641 33.2292 27.5C33.2292 24.3359 30.6641 21.7708 27.5 21.7708Z" fill="white"/>
  </g>
  <defs>
    <filter id="filter0_i_13_67" x="0" y="0" width="55" height="59" filterUnits="userSpaceOnUse" color-interpolation-filters="sRGB">
      <feFlood flood-opacity="0" result="BackgroundImageFix"/>
      <feBlend mode="normal" in="SourceGraphic" in2="BackgroundImageFix" result="shape"/>
      <feColorMatrix in="SourceAlpha" type="matrix" values="0 0 0 0 0 0 0 0 0 0 0 0 0 0 0 0 0 0 127 0" result="hardAlpha"/>
      <feOffset dy="4"/>
      <feGaussianBlur stdDeviation="2"/>
      <feComposite in2="hardAlpha" operator="arithmetic" k2="-1" k3="1"/>
      <feColorMatrix type="matrix" values="0 0 0 0 0 0 0 0 0 0 0 0 0 0 0 0 0 0 0.7 0"/>
      <feBlend mode="normal" in2="shape" result="effect1_innerShadow_13_67"/>
    </filter>
  </defs>
</svg>